<svg xmlns="http://www.w3.org/2000/svg" viewBox="0 0 64 64" width="64" height="64">
  <defs>
    <linearGradient id="sea" x1="0" y1="0" x2="0" y2="1">
      <stop offset="0" stop-color="#062a33"/>
      <stop offset="1" stop-color="#01131a"/>
    </linearGradient>
    <linearGradient id="coral" x1="0" y1="1" x2="1" y2="0">
      <stop offset="0" stop-color="#4fe6d6"/>
      <stop offset="1" stop-color="#e8815f"/>
    </linearGradient>
  </defs>
  <rect width="64" height="64" rx="14" fill="url(#sea)"/>
  <g fill="none" stroke="url(#coral)" stroke-width="4.2" stroke-linecap="round">
    <path d="M32 54 V32"/>
    <path d="M32 40 C32 30 24 28 22 20"/>
    <path d="M32 38 C32 28 40 26 43 19"/>
    <path d="M32 46 C32 40 26 38 24 33"/>
    <path d="M32 44 C32 38 39 37 41 32"/>
  </g>
  <g fill="#4fe6d6">
    <circle cx="22" cy="18" r="3"/>
    <circle cx="43.5" cy="17" r="3"/>
    <circle cx="24" cy="31.5" r="2.2"/>
    <circle cx="41" cy="30.5" r="2.2"/>
  </g>
  <g fill="#7ff3e6" opacity=".55">
    <circle cx="13" cy="24" r="1.6"/>
    <circle cx="52" cy="30" r="1.4"/>
    <circle cx="17" cy="44" r="1.2"/>
    <circle cx="49" cy="46" r="1.5"/>
  </g>
</svg>
